name C:\Users\u0101727\Documents\MyRepositories\upper-imu-dc\Results\main_tracking\Case_10\FLX01_angularVelocities_groundFrame.mot
datacolumns 4
datarows 47
range 2.01000000 2.47000000
endheader 
time	radius_imu_x	radius_imu_y	radius_imu_z	
          2.01000000	         -0.32184032	         -0.28043583	          1.12128785	
          2.02000000	         -0.47443088	         -0.35002455	          1.07283607	
          2.03000000	         -0.65351623	         -0.43661544	          1.01531506	
          2.04000000	         -0.82864688	         -0.52509475	          0.95683194	
          2.05000000	         -0.97164040	         -0.59969479	          0.90547257	
          2.06000000	         -1.06396020	         -0.64840269	          0.86714234	
          2.07000000	         -1.10049615	         -0.66595557	          0.84423376	
          2.08000000	         -1.08798239	         -0.65395093	          0.83576225	
          2.09000000	         -1.03879723	         -0.61794682	          0.83889816	
          2.10000000	         -0.96347955	         -0.56317424	          0.85100776	
          2.11000000	         -0.86684971	         -0.49190255	          0.87078528	
          2.12000000	         -0.75065354	         -0.40477812	          0.89757337	
          2.13000000	         -0.62040549	         -0.30524084	          0.92948732	
          2.14000000	         -0.49082066	         -0.20356153	          0.96195209	
          2.15000000	         -0.38589959	         -0.11756249	          0.98779470	
          2.16000000	         -0.33330711	         -0.06920038	          0.99896752	
          2.17000000	         -0.35512443	         -0.07793648	          0.98924687	
          2.18000000	         -0.45868264	         -0.15329334	          0.95681416	
          2.19000000	         -0.63211874	         -0.29018454	          0.90542414	
          2.20000000	         -0.84741924	         -0.46972880	          0.84344050	
          2.21000000	         -1.06904864	         -0.66487336	          0.78132310	
          2.22000000	         -1.26321140	         -0.84740908	          0.72896779	
          2.23000000	         -1.40401943	         -0.99334027	          0.69392368	
          2.24000000	         -1.47582404	         -1.08562892	          0.68067168	
          2.25000000	         -1.47278091	         -1.11477843	          0.69068963	
          2.26000000	         -1.39704780	         -1.07814046	          0.72295600	
          2.27000000	         -1.25663226	         -0.97868610	          0.77461492	
          2.28000000	         -1.06341779	         -0.82369642	          0.84162208	
          2.29000000	         -0.83159569	         -0.62362963	          0.91926558	
          2.30000000	         -0.57665571	         -0.39137682	          1.00249793	
          2.31000000	         -0.31506037	         -0.14210519	          1.08604375	
          2.32000000	         -0.06448137	          0.10634017	          1.16431952	
          2.33000000	          0.15592624	          0.33293652	          1.23131147	
          2.34000000	          0.32601231	          0.51373173	          1.28064326	
          2.35000000	          0.42661373	          0.62378552	          1.30607631	
          2.36000000	          0.44324771	          0.64135912	          1.30257544	
          2.37000000	          0.37084225	          0.55396165	          1.26781520	
          2.38000000	          0.21768752	          0.36435227	          1.20360330	
          2.39000000	          0.00597213	          0.09314484	          1.11635460	
          2.40000000	         -0.23259671	         -0.22458040	          1.01601531	
          2.41000000	         -0.46439758	         -0.54755556	          0.91381441	
          2.42000000	         -0.66106381	         -0.83741626	          0.81992122	
          2.43000000	         -0.80377161	         -1.06525246	          0.74183005	
          2.44000000	         -0.88440217	         -1.21465233	          0.68367178	
          2.45000000	         -0.90438492	         -1.28167411	          0.64631960	
          2.46000000	         -0.87220864	         -1.27265843	          0.62805094	
          2.47000000	         -0.80056219	         -1.20103337	          0.62546209	
